<?xml version="1.0" encoding="utf-8"?><svg xmlns="http://www.w3.org/2000/svg" xmlns:xlink="http://www.w3.org/1999/xlink" width="1536" height="180" preserveAspectRatio="xMidYMid" viewBox="0 0 1536 180" style="z-index:1;margin-right:-2px;display:block;background-repeat-y:initial;background-repeat-x:initial;background-color:rgb(255, 255, 255);animation-play-state:paused" ><g transform="translate(768,90) scale(1,1) translate(-768,-90)" style="transform:matrix(1, 0, 0, 1, 0, 0);animation-play-state:paused" ><linearGradient id="lg-0.3409967555178033" x1="0" x2="1" y1="0" y2="0" style="animation-play-state:paused" ><stop stop-color="#4534aa" offset="0" style="animation-play-state:paused" ></stop>

  
<stop stop-color="#4534aa" offset="1" style="animation-play-state:paused" ></stop></linearGradient>
<path d="M 0 0 L 0 142.138 Q 153.6 178.421 307.2 141.567 T 614.4 118.769 T 921.6 91.7868 T 1228.8 84.5318 T 1536 60.9828 L 1536 0 Z" fill="url(#lg-0.3409967555178033)" opacity="0.4" style="opacity:0.4;animation-play-state:paused" ></path>
<path d="M 0 0 L 0 145.565 Q 153.6 176.34 307.2 138.345 T 614.4 119.41 T 921.6 96.7421 T 1228.8 94.2366 T 1536 67.0549 L 1536 0 Z" fill="url(#lg-0.3409967555178033)" opacity="0.4" style="opacity:0.4;animation-play-state:paused" ></path>
<path d="M 0 0 L 0 139.841 Q 153.6 164.062 307.2 133.223 T 614.4 117.114 T 921.6 98.236 T 1228.8 93.7367 T 1536 81.037 L 1536 0 Z" fill="url(#lg-0.3409967555178033)" opacity="0.4" style="opacity:0.4;animation-play-state:paused" ></path>
<path d="M 0 0 L 0 145.365 Q 153.6 176.336 307.2 129.101 T 614.4 105.114 T 921.6 105.476 T 1228.8 77.606 T 1536 68.0512 L 1536 0 Z" fill="url(#lg-0.3409967555178033)" opacity="0.4" style="opacity:0.4;animation-play-state:paused" ></path>
<path d="M 0 0 L 0 142.414 Q 153.6 151.02 307.2 123.885 T 614.4 114.456 T 921.6 103.63 T 1228.8 86.4796 T 1536 68.837 L 1536 0 Z" fill="url(#lg-0.3409967555178033)" opacity="0.4" style="opacity:0.4;animation-play-state:paused" ></path></g></svg>