<?xml version="1.0" encoding="utf-8"?><svg xmlns="http://www.w3.org/2000/svg" xmlns:xlink="http://www.w3.org/1999/xlink" width="1536" height="408" preserveAspectRatio="xMidYMid" viewBox="0 0 1536 408" style="z-index:1;margin-right:-2px;display:block;background-repeat-y:initial;background-repeat-x:initial;background-color:rgb(248, 249, 250);animation-play-state:paused" ><g transform="translate(768,204) scale(-1,-1) translate(-768,-204)" style="transform:matrix(-1, 0, 0, -1, 1536, 408);animation-play-state:paused" ><linearGradient id="lg-0.2870810819486658" x1="0" x2="1" y1="0" y2="0" style="animation-play-state:paused" ><stop stop-color="#4534aa" offset="0" style="animation-play-state:paused" ></stop>

  
<stop stop-color="#4534aa" offset="1" style="animation-play-state:paused" ></stop></linearGradient>
<path d="M 0 0 L 0 355.538 Q 153.6 361.396 307.2 317.53 T 614.4 251.766 T 921.6 197.165 T 1228.8 140.202 T 1536 77.6872 L 1536 0 Z" fill="url(#lg-0.2870810819486658)" opacity="0.9" style="opacity:0.9;animation-play-state:paused" ></path>
<path d="M 0 0 L 0 363.76 Q 153.6 350.513 307.2 328.799 T 614.4 264.634 T 921.6 208.062 T 1228.8 151.586 T 1536 95.0488 L 1536 0 Z" fill="url(#lg-0.2870810819486658)" opacity="0.9" style="opacity:0.9;animation-play-state:paused" ></path>
<path d="M 0 0 L 0 387.876 Q 153.6 341.23 307.2 303.293 T 614.4 239.094 T 921.6 177.63 T 1228.8 137.744 T 1536 86.7235 L 1536 0 Z" fill="url(#lg-0.2870810819486658)" opacity="0.9" style="opacity:0.9;animation-play-state:paused" ></path>
<path d="M 0 0 L 0 364.211 Q 153.6 357.869 307.2 316.81 T 614.4 249.124 T 921.6 191.377 T 1228.8 145.018 T 1536 82.4818 L 1536 0 Z" fill="url(#lg-0.2870810819486658)" opacity="0.9" style="opacity:0.9;animation-play-state:paused" ></path>
<path d="M 0 0 L 0 387.975 Q 153.6 357.273 307.2 323.167 T 614.4 244.383 T 921.6 199.052 T 1228.8 136.141 T 1536 95.8291 L 1536 0 Z" fill="url(#lg-0.2870810819486658)" opacity="0.9" style="opacity:0.9;animation-play-state:paused" ></path>
<path d="M 0 0 L 0 372.57 Q 153.6 333.061 307.2 309.17 T 614.4 243.588 T 921.6 194.559 T 1228.8 147.903 T 1536 77.5179 L 1536 0 Z" fill="url(#lg-0.2870810819486658)" opacity="0.9" style="opacity:0.9;animation-play-state:paused" ></path></g></svg>